<?xml version="1.0" encoding="UTF-8" standalone="no"?>
<svg
   width="112"
   height="107"
   viewBox="0 0 29.270178 27.957798"
   version="1.1"
   id="svg7"
   sodipodi:docname="shch-logo.svg"
   inkscape:version="1.4.3 (0d15f75, 2025-12-25)"
   xmlns:inkscape="http://www.inkscape.org/namespaces/inkscape"
   xmlns:sodipodi="http://sodipodi.sourceforge.net/DTD/sodipodi-0.dtd"
   xmlns="http://www.w3.org/2000/svg"
   xmlns:svg="http://www.w3.org/2000/svg">
  <defs
     id="defs7" />
  <sodipodi:namedview
     id="namedview7"
     pagecolor="#ffffff"
     bordercolor="#000000"
     borderopacity="0.25"
     inkscape:showpageshadow="2"
     inkscape:pageopacity="0.0"
     inkscape:pagecheckerboard="0"
     inkscape:deskcolor="#d1d1d1"
     inkscape:zoom="0.87181878"
     inkscape:cx="21.79352"
     inkscape:cy="90.615162"
     inkscape:window-width="1320"
     inkscape:window-height="813"
     inkscape:window-x="54"
     inkscape:window-y="38"
     inkscape:window-maximized="0"
     inkscape:current-layer="g6" />
  <g
     transform="translate(-75.935407,-73.025008)"
     id="g7">
    <g
       transform="matrix(0.66906067,0,0,0.66906067,-1156.2371,201.07684)"
       id="g6">
      <g
         transform="matrix(0.55309268,0,0,0.55309268,845.78345,-98.093274)"
         id="g5">
        <g
           transform="matrix(1.7175031,0,0,1.6556711,1229.0339,-202.39038)"
           id="g4">
          <g
             transform="translate(202.59633,7.5087177)"
             id="g3">
            <path
               d="m 160.22591,28.903016 c 0,0 -3.14832,1.328862 -4.33156,6.020407 -1.72214,6.828231 3.13841,4.12115 3.13841,4.12115 0,0 4.14156,-2.158617 5.58087,-4.079812 0.43054,-0.574695 -0.22464,4.271107 -0.22464,4.271107 0,0 2.00761,0.958801 1.93866,0.08184 -0.0833,-1.059821 0.19204,-2.085105 0.19204,-2.085105 0,0 3.23365,-5.88295 3.33422,-5.431011 0.10055,0.451943 -0.85117,6.321074 0.33991,6.641523 1.19105,0.320453 2.9641,-1.796005 3.26954,-3.085801 0.30543,-1.289805 -0.0913,-1.520404 -2.06247,0.480723 -1.97132,2.001143 0.57752,-4.385422 0.6227,-5.92228 0.0452,-1.536857 -1.8466,-1.169528 -2.48401,-0.721424 -0.63741,0.448113 -3.05548,6.772498 -3.38744,5.930807 -0.33198,-0.841694 0.66759,-8.990516 1.98627,-11.052175 1.31869,-2.061662 -1.28672,-0.337283 -1.87521,0.504545 -0.73415,1.050201 -0.59984,1.925329 -0.82623,3.000268 -0.079,1.191395 -0.28232,3.862318 -0.55888,5.009418 -0.27656,1.147101 -1.03627,1.855865 -1.51646,2.332686 -0.57458,0.57053 -5.7438,5.503698 -5.83676,1.291932 -0.093,-4.211762 2.38888,-5.693338 2.74683,-5.78291 0.35799,-0.08955 0.53505,1.407324 1.03065,0.929902 0.49557,-0.477413 1.09279,-1.395817 0.6148,-2.683967 -0.478,-1.288142 -1.36074,-0.09009 -1.69115,0.22817 z"
               id="path1" />
            <path
               d="m 150.74674,26.721472 c -0.0363,0.0064 -0.0664,0.01607 -0.0884,0.03101 -0.35247,0.232779 -8.59194,9.77075 -9.78562,11.549609 -0.565,0.841983 -7.81392,-0.86078 -5.04232,-4.339058 2.80948,-3.525802 6.79501,-4.006685 6.79501,-4.006685 0,0 1.11652,-2.179797 0.28388,-1.984253 0,0 -4.89549,-0.180381 -9.21718,6.01073 -4.30607,6.168727 5.93372,5.420755 5.74287,6.204861 -0.19087,0.784098 -4.25933,6.647344 -2.12993,7.582254 2.21,0.970275 2.92875,1.406831 4.28776,0.05377 1.35902,-1.353071 2.69781,-4.843924 2.29709,-6.983721 -0.40071,-2.139797 -1.82438,-2.11085 -1.82438,-2.11085 0,0 5.38345,-7.4542 5.79247,-7.218115 0.40901,0.236095 -2.86077,12.018719 -0.83281,11.662243 1.72348,-0.302898 0.97106,-1.649019 1.25733,-2.197085 0.57491,-1.543978 2.33454,-4.764002 3.49187,-4.179022 0.75983,0.384052 -1.85215,4.361903 0.49446,4.887596 2.34664,0.525701 4.42647,-3.394368 4.42647,-3.394368 l -0.65406,-1.492015 c 0,0 -2.23956,3.757671 -3.02559,3.529047 -0.75937,-0.220876 1.09189,-3.906532 0.7557,-4.722223 -0.3362,-0.815678 -1.61734,-1.184372 -2.55673,-0.690565 -0.93938,0.493815 -2.73308,3.37344 -3.08954,3.178584 -0.35647,-0.194859 1.74371,-8.879923 3.31688,-9.838886 1.07564,-0.655671 -0.14873,-1.624647 -0.69526,-1.532801 z m -9.89526,13.771221 c 1.34667,0.123033 1.31345,1.030637 1.37162,1.118707 0.0582,0.08807 -0.98209,4.875248 -3.12189,5.275969 -2.28586,0.428072 1.75027,-6.394676 1.75027,-6.394676 z"
               id="path2" />
            <path
               d="m 169.64585,42.70455 c 0,0 2.05733,0.152338 2.15394,-1.586597 0.11429,-2.056896 -4.62086,-1.001482 -4.62086,-1.001482 0,0 -15.0156,3.519699 -28.72261,10.364259 -6.96643,3.478684 -0.89442,2.472016 -0.89442,2.472016 0,0 6.32516,-4.166628 15.38446,-7.328413 7.51275,-2.622025 16.95381,-5.328966 16.69949,-2.919787 z"
               id="path3"
               style="stroke-width:0.944332" />
          </g>
        </g>
        <ellipse
           fill="none"
           stroke="currentColor"
           stroke-width="3.11751"
           cx="1840.0823"
           cy="-130.9073"
           rx="37.989918"
           ry="36.21669"
           id="ellipse4"
           style="stroke-width:3.39977374;stroke-dasharray:none" />
      </g>
    </g>
  </g>
</svg>
